HIERARCHY
ROOT Hips
{
    OFFSET 0.000000 0.000000 0.000000
    CHANNELS 6 Xposition Yposition Zposition Zrotation Xrotation Yrotation
    JOINT Spine
    {
        OFFSET -0.000000 14.517291 0.000000
        CHANNELS 3 Zrotation Xrotation Yrotation
        JOINT Spine1
        {
            OFFSET -0.000000 37.558300 0.000000
            CHANNELS 3 Zrotation Xrotation Yrotation
            JOINT Neck
            {
                OFFSET -0.000000 37.404057 3.400369
                CHANNELS 3 Zrotation Xrotation Yrotation
                JOINT Head
                {
                    OFFSET -0.000000 24.785618 -3.540803
                    CHANNELS 3 Zrotation Xrotation Yrotation
                    End Site
                    {
                        OFFSET -0.000000 35.408028 0.000000
                    }
                }
            }
            JOINT LeftShoulder
            {
                OFFSET 6.992933 33.973492 -0.192664
                CHANNELS 3 Zrotation Xrotation Yrotation
                JOINT LeftArm
                {
                    OFFSET 21.527611 0.000000 0.000000
                    CHANNELS 3 Zrotation Xrotation Yrotation
                    JOINT LeftForeArm
                    {
                        OFFSET 56.353916 0.000000 0.000000
                        CHANNELS 3 Zrotation Xrotation Yrotation
                        JOINT LeftHand
                        {
                            OFFSET 47.774071 0.000000 0.000000
                            CHANNELS 3 Zrotation Xrotation Yrotation
                            End Site
                            {
                                OFFSET 26.556021 0.000000 0.000000
                            }
                        }
                    }
                }
            }
            JOINT RightShoulder
            {
                OFFSET -7.065357 33.973492 -0.192664
                CHANNELS 3 Zrotation Xrotation Yrotation
                JOINT RightArm
                {
                    OFFSET -21.527611 0.000000 0.000000
                    CHANNELS 3 Zrotation Xrotation Yrotation
                    JOINT RightForeArm
                    {
                        OFFSET -56.353916 0.000000 0.000000
                        CHANNELS 3 Zrotation Xrotation Yrotation
                        JOINT RightHand
                        {
                            OFFSET -47.774071 0.000000 0.000000
                            CHANNELS 3 Zrotation Xrotation Yrotation
                            End Site
                            {
                                OFFSET -26.556021 0.000000 0.000000
                            }
                        }
                    }
                }
            }
        }
    }
    JOINT LeftUpLeg
    {
        OFFSET 17.704014 0.000000 0.000000
        CHANNELS 3 Zrotation Xrotation Yrotation
        JOINT LeftLeg
        {
            OFFSET -0.000000 -81.181816 0.000000
            CHANNELS 3 Zrotation Xrotation Yrotation
            JOINT LeftFoot
            {
                OFFSET -0.000000 -62.821102 0.000000
                CHANNELS 3 Zrotation Xrotation Yrotation
                JOINT LeftToeBase
                {
                    OFFSET -0.000000 -11.507608 26.556021
                    CHANNELS 3 Zrotation Xrotation Yrotation
                    End Site
                    {
                        OFFSET -0.000000 0.000000 7.081605
                    }
                }
            }
        }
    }
    JOINT RightUpLeg
    {
        OFFSET -17.704014 0.000000 0.000000
        CHANNELS 3 Zrotation Xrotation Yrotation
        JOINT RightLeg
        {
            OFFSET -0.000000 -81.181816 0.000000
            CHANNELS 3 Zrotation Xrotation Yrotation
            JOINT RightFoot
            {
                OFFSET -0.000000 -62.821102 0.000000
                CHANNELS 3 Zrotation Xrotation Yrotation
                JOINT RightToeBase
                {
                    OFFSET -0.000000 -11.507608 26.556021
                    CHANNELS 3 Zrotation Xrotation Yrotation
                    End Site
                    {
                        OFFSET -0.000000 0.000000 7.081605
                    }
                }
            }
        }
    }
}
MOTION
Frames:    4
Frame Time:    0.008333
2.334409    156.593140    -14.808613    -3.095562    1.236969    -38.609612    5.392946    1.123237    3.141920    -0.874872    1.828759    1.078471    16.305565    6.574536    14.203457    -10.295681    -2.001462    11.692880    -0.964684    9.353418    -10.426193    -38.655914    8.578324    -36.325676    35.927273    -43.906013    -42.814369    -16.924419    -28.721952    -28.398464    -5.007504    5.955156    -1.620346    35.660500    9.656047    74.563560    5.230105    -10.937273    94.489265    12.359884    -14.370288    19.606878    25.135195    -17.448654    0.697105    -11.350893    16.177452    -4.368943    -12.029099    -4.534083    46.321663    0.000000    0.000000    0.000000    -6.764739    -5.104088    -6.643682    6.970703    31.768555    -2.120465    1.099946    -21.063681    -10.376758    0.000000    0.000000    0.000000    
2.392155    156.610748    -14.696797    -3.070707    1.269273    -38.730507    5.409136    1.149923    3.164947    -0.883307    1.821270    1.086727    16.363428    6.608347    14.256230    -10.390129    -2.015621    11.731686    -0.963588    9.311613    -10.433700    -38.643620    8.510637    -36.323303    35.904598    -43.872044    -42.771194    -16.927607    -28.693806    -28.465275    -5.026000    5.900648    -1.586244    35.566700    9.630319    74.656792    5.174635    -11.054028    94.386032    12.415466    -14.398431    19.694689    25.165497    -17.444197    0.763526    -11.418919    16.229990    -4.332127    -12.009666    -4.464686    46.334404    0.000000    0.000000    0.000000    -6.826355    -5.128480    -6.657704    6.965505    31.722027    -2.079746    1.159533    -20.997370    -10.285781    0.000000    0.000000    0.000000    
2.453183    156.623260    -14.585510    -3.049911    1.296984    -38.855854    5.409578    1.189092    3.193886    -0.864974    1.791654    1.096483    16.432964    6.673118    14.308946    -10.518629    -2.031512    11.768527    -0.973988    9.312229    -10.445694    -38.557003    8.566914    -36.359413    36.128017    -43.924637    -42.505157    -16.946354    -28.753428    -28.487061    -5.061942    5.863323    -1.530188    35.500278    9.581741    74.732109    5.109532    -11.166203    94.260864    12.501461    -14.406409    19.767897    25.196644    -17.432335    0.866542    -11.477116    16.292627    -4.318487    -11.981275    -4.390560    46.317066    0.000000    0.000000    0.000000    -6.883844    -5.150311    -6.674236    6.948689    31.679646    -2.051509    1.212960    -20.928560    -10.173092    0.000000    0.000000    0.000000    
2.523220    156.635712    -14.475313    -3.015275    1.336942    -38.980309    5.415896    1.221529    3.209146    -0.862574    1.746760    1.101737    16.469227    6.717949    14.370089    -10.567765    -2.025387    11.828753    -0.981973    9.335902    -10.434479    -38.535164    8.459011    -36.376759    36.114479    -43.887779    -42.483166    -16.964603    -28.710869    -28.530865    -5.097799    5.840816    -1.461224    35.474819    9.505770    74.806236    5.093953    -11.209414    94.174919    12.537747    -14.416480    19.787266    25.218760    -17.445284    0.956304    -11.520625    16.365095    -4.324079    -11.994763    -4.359406    46.335602    0.000000    0.000000    0.000000    -6.941869    -5.184428    -6.678914    6.924777    31.613113    -2.120773    1.328034    -20.866714    -9.958261    0.000000    0.000000    0.000000    
